# xmcd CD database file generated by Grip 2.95
# 
# Track frame offsets:
#       150
#       16251
#       25257
#       36777
#       60007
#       71387
#       83877
#       101617
#       110034
#       129483
#       157951
#       171669
#       189895
#       204553
#       216928
#       239442
#       251569
#       266815
#       284941
#       308529
#       324381
#       334473
# 
# Disc length: 4644 seconds
# 
# Revision: 3
# Processed by: cddbd v1.5PL3 Copyright (c) Steve Scherf et al.
# Submitted via: Grip 2.95
# 
DISCID=40122216
DTITLE=The Damn Fans - Hellbilly Tribute Disc 2
DYEAR=1900
DGENRE=
TTITLE0=Hellbilly Fiend - Junkrod
TTITLE1=Makes Me Sick - maggotbrain
TTITLE2=Don't Call - longtooth devil
TTITLE3=High Live - Artimus Pyledriver
TTITLE4=Whiskey and Wine - The Hotrod Hillbillies
TTITLE5=To You - Velvet Friend
TTITLE6=Play'n With Your Mama - Rich Cro
TTITLE7=Stimmen im Wind - Grinder
TTITLE8=Miserable Existence - mindnumbedbyTHC
TTITLE9=Mr. Magic - Sixes and Sevens
TTITLE10=Demons - c-bear
TTITLE11=The Right Time To Leave You - chickentrucker69
TTITLE12=New River Grass - New River Grass
TTITLE13=Chase Down These Blues - Little White Pills
TTITLE14=Cold Cold Convoluted Grey - BirdTV
TTITLE15=County Jail Sucks - Foothill Hobo
TTITLE16=Never Will Marry - Cyjoe
TTITLE17=Skulls - the killer
TTITLE18=Dublin Blues - Jethro NC
TTITLE19=Lowdown Dirty Drinkin' - FortyTwenty
TTITLE20=Rat In A Pan - Pulpit Red
TTITLE21=Done My Own Thing - Willie Harlan
EXTD=
EXTT0=
EXTT1=
EXTT2=
EXTT3=
EXTT4=
EXTT5=
EXTT6=
EXTT7=
EXTT8=
EXTT9=
EXTT10=
EXTT11=
EXTT12=
EXTT13=
EXTT14=
EXTT15=
EXTT16=
EXTT17=
EXTT18=
EXTT19=
EXTT20=
EXTT21=
PLAYORDER=
